G04 DipTrace 3.3.1.1*
G04 Top.gbr*
%MOIN*%
G04 #@! TF.FileFunction,Copper,L1,Top*
G04 #@! TF.Part,Single*
%AMOUTLINE0*
4,1,20,
0.03937,0.0,
0.037443,-0.018249,
0.031851,-0.034712,
0.023141,-0.047777,
0.012166,-0.056165,
0.0,-0.059055,
-0.012166,-0.056165,
-0.023141,-0.047777,
-0.031851,-0.034712,
-0.037443,-0.018249,
-0.03937,0.0,
-0.037443,0.018249,
-0.031851,0.034712,
-0.023141,0.047777,
-0.012166,0.056165,
0.0,0.059055,
0.012166,0.056165,
0.023141,0.047777,
0.031851,0.034712,
0.037443,0.018249,
0.03937,0.0,
0*%
G04 #@! TA.AperFunction,Conductor*
%ADD14C,0.012992*%
%ADD15R,0.019685X0.11811*%
G04 #@! TA.AperFunction,ComponentPad*
%ADD26OUTLINE0*%
%FSLAX26Y26*%
G04*
G70*
G90*
G75*
G01*
G04 Top*
%LPD*%
X2031496Y492126D2*
D14*
Y1537795D1*
X2000000Y1569291D1*
Y1669291D1*
X2066929Y492126D2*
Y1536220D1*
X2100000Y1569291D1*
Y1669291D1*
X2102362Y492126D2*
Y1471654D1*
X2200000Y1569291D1*
Y1669291D1*
X2137795Y492126D2*
Y1407087D1*
X2300000Y1569291D1*
Y1669291D1*
X2173228Y492126D2*
Y1342520D1*
X2400000Y1569291D1*
Y1669291D1*
X2208661Y492126D2*
Y1277953D1*
X2500000Y1569291D1*
Y1669291D1*
X2244094Y492126D2*
Y1213386D1*
X2600000Y1569291D1*
Y1669291D1*
X2279528Y492126D2*
Y1148819D1*
X2700000Y1569291D1*
Y1669291D1*
X2314961Y492126D2*
Y1084252D1*
X2800000Y1569291D1*
Y1669291D1*
X2350394Y492126D2*
Y1019685D1*
X2900000Y1569291D1*
Y1669291D1*
X2385827Y492126D2*
Y955118D1*
X3000000Y1569291D1*
Y1669291D1*
X2421260Y492126D2*
Y890551D1*
X3100000Y1569291D1*
Y1669291D1*
X2456693Y492126D2*
Y825984D1*
X3200000Y1569291D1*
Y1669291D1*
X2492126Y492126D2*
Y761417D1*
X3300000Y1569291D1*
Y1669291D1*
X2527559Y492126D2*
Y696850D1*
X3400000Y1569291D1*
Y1669291D1*
X2562992Y492126D2*
Y632283D1*
X3500000Y1569291D1*
Y1669291D1*
X2598425Y492126D2*
Y567717D1*
X3600000Y1569291D1*
Y1669291D1*
X1500000Y492126D2*
Y569291D1*
X500000Y1569291D1*
Y1669291D1*
X1535433Y492126D2*
Y633858D1*
X600000Y1569291D1*
Y1669291D1*
X1570866Y492126D2*
Y698425D1*
X700000Y1569291D1*
Y1669291D1*
X1996063Y492126D2*
Y1473228D1*
X1900000Y1569291D1*
Y1669291D1*
X1960630Y492126D2*
Y1408661D1*
X1800000Y1569291D1*
Y1669291D1*
X1925197Y492126D2*
Y1344094D1*
X1700000Y1569291D1*
Y1669291D1*
X1889764Y492126D2*
Y1279528D1*
X1600000Y1569291D1*
Y1669291D1*
X1854331Y492126D2*
Y1214961D1*
X1500000Y1569291D1*
Y1669291D1*
X1818898Y492126D2*
Y1150394D1*
X1400000Y1569291D1*
Y1669291D1*
X1783465Y492126D2*
Y1085827D1*
X1300000Y1569291D1*
Y1669291D1*
X1748031Y492126D2*
Y1021260D1*
X1200000Y1569291D1*
Y1669291D1*
X1712598Y492126D2*
Y956693D1*
X1100000Y1569291D1*
Y1669291D1*
X1677165Y492126D2*
Y892126D1*
X1000000Y1569291D1*
Y1669291D1*
X1641732Y492126D2*
Y827559D1*
X900000Y1569291D1*
Y1669291D1*
X1606299Y492126D2*
Y762992D1*
X800000Y1569291D1*
Y1669291D1*
D15*
X1500000Y492126D3*
X1535433D3*
X1570866D3*
X1606299D3*
X1641732D3*
X1677165D3*
X1712598D3*
X1748031D3*
X1783465D3*
X1818898D3*
X1854331D3*
X1889764D3*
X1925197D3*
X1960630D3*
X1996063D3*
X2031496D3*
X2066929D3*
X2102362D3*
X2137795D3*
X2173228D3*
X2208661D3*
X2244094D3*
X2279528D3*
X2314961D3*
X2350394D3*
X2385827D3*
X2421260D3*
X2456693D3*
X2492126D3*
X2527559D3*
X2562992D3*
X2598425D3*
D26*
X500000Y1669291D3*
X600000D3*
X700000D3*
X800000D3*
X900000D3*
X1000000D3*
X1100000D3*
X1200000D3*
X1300000D3*
X1400000D3*
X1500000D3*
X1600000D3*
X1700000D3*
X1800000D3*
X1900000D3*
X2000000D3*
X2100000D3*
X2200000D3*
X2300000D3*
X2400000D3*
X2500000D3*
X2600000D3*
X2700000D3*
X2800000D3*
X2900000D3*
X3000000D3*
X3100000D3*
X3200000D3*
X3300000D3*
X3400000D3*
X3500000D3*
X3600000D3*
M02*
