G04 DipTrace 3.3.1.1*
G04 TopDimension.gbr*
%MOIN*%
G04 #@! TF.FileFunction,Drawing,Top*
G04 #@! TF.Part,Single*
%ADD13C,0.001378*%
%ADD25C,0.006176*%
%FSLAX26Y26*%
G04*
G70*
G90*
G75*
G01*
G04 TopDimension*
%LPD*%
X393701Y1811024D2*
D13*
Y1972441D1*
X3700787Y1811024D2*
Y1972441D1*
X2047244Y1952756D2*
X433071D1*
G36*
X393701D2*
X433071Y1960630D1*
Y1944882D1*
X393701Y1952756D1*
G37*
X2047244D2*
D13*
X3661417D1*
G36*
X3700787D2*
X3661417Y1944882D1*
Y1960630D1*
X3700787Y1952756D1*
G37*
Y1811024D2*
D13*
X3956693D1*
X3700787Y393701D2*
X3956693D1*
X3937008Y1102362D2*
Y1771654D1*
G36*
Y1811024D2*
X3944882Y1771654D1*
X3929134D1*
X3937008Y1811024D1*
G37*
Y1102362D2*
D13*
Y433071D1*
G36*
Y393701D2*
X3929134Y433071D1*
X3944882D1*
X3937008Y393701D1*
G37*
X2025984Y2005114D2*
D25*
X2020280Y2003213D1*
X2018334Y1999411D1*
Y1995564D1*
X2020280Y1991761D1*
X2024082Y1989816D1*
X2031732Y1987915D1*
X2037480Y1986013D1*
X2041282Y1982167D1*
X2043184Y1978364D1*
Y1972616D1*
X2041282Y1968813D1*
X2039381Y1966868D1*
X2033633Y1964967D1*
X2025984D1*
X2020280Y1966868D1*
X2018334Y1968813D1*
X2016433Y1972616D1*
Y1978364D1*
X2018334Y1982167D1*
X2022181Y1986013D1*
X2027885Y1987915D1*
X2035534Y1989816D1*
X2039381Y1991761D1*
X2041282Y1995564D1*
Y1999411D1*
X2039381Y2003213D1*
X2033633Y2005114D1*
X2025984D1*
X2074680Y1964967D2*
Y2005114D1*
X2055535Y1978364D1*
X2084231D1*
X3989366Y1127425D2*
Y1106423D1*
X3974068Y1117875D1*
Y1112127D1*
X3972167Y1108324D1*
X3970265Y1106423D1*
X3964517Y1104477D1*
X3960715D1*
X3954967Y1106423D1*
X3951120Y1110225D1*
X3949219Y1115973D1*
Y1121721D1*
X3951120Y1127425D1*
X3953065Y1129326D1*
X3956868Y1131272D1*
X3983663Y1069178D2*
X3987465Y1071079D1*
X3989366Y1076827D1*
Y1080630D1*
X3987465Y1086378D1*
X3981717Y1090225D1*
X3972167Y1092126D1*
X3962616D1*
X3954967Y1090225D1*
X3951120Y1086378D1*
X3949219Y1080630D1*
Y1078729D1*
X3951120Y1073025D1*
X3954967Y1069178D1*
X3960715Y1067277D1*
X3962616D1*
X3968364Y1069178D1*
X3972167Y1073025D1*
X3974068Y1078729D1*
Y1080630D1*
X3972167Y1086378D1*
X3968364Y1090225D1*
X3962616Y1092126D1*
M02*
